<svg width="164" height="42" viewBox="0 0 164 42" fill="none" xmlns="http://www.w3.org/2000/svg">
<path fill-rule="evenodd" clip-rule="evenodd" d="M0.549983 3.8912C0.371094 4.55882 0.371094 5.37255 0.371094 7V35C0.371094 36.6274 0.371094 37.4412 0.549983 38.1088C1.03544 39.9205 2.45056 41.3357 4.26229 41.8211C4.92992 42 5.74364 42 7.37109 42H21.3711C30.7772 42 38.739 35.8158 41.4123 27.2916C38.0857 27.1206 35.4411 24.3691 35.4411 21C35.4411 17.6309 38.0857 14.8794 41.4123 14.7084C38.739 6.18415 30.7772 0 21.3711 0H7.37109C5.74364 0 4.92992 0 4.26229 0.178889C2.45056 0.664342 1.03544 2.07947 0.549983 3.8912ZM18.9561 28.875C23.3053 28.875 26.8311 25.3492 26.8311 21C26.8311 16.6508 23.3053 13.125 18.9561 13.125C14.6068 13.125 11.0811 16.6508 11.0811 21C11.0811 25.3492 14.6068 28.875 18.9561 28.875ZM13.6982 11.9899C14.4983 11.5201 14.766 10.4906 14.2962 9.69054C13.8263 8.89045 12.7969 8.62272 11.9968 9.09254C11.1967 9.56237 10.9289 10.5918 11.3988 11.3919C11.8686 12.192 12.8981 12.4598 13.6982 11.9899ZM13.6746 32.582C14.4747 32.1122 14.7424 31.0827 14.2726 30.2826C13.8028 29.4826 12.7733 29.2148 11.9732 29.6846C11.1731 30.1545 10.9054 31.1839 11.3752 31.984C11.845 32.7841 12.8745 33.0519 13.6746 32.582ZM32.2454 19.7287C32.7153 20.5288 32.4475 21.5583 31.6474 22.0281C30.8473 22.4979 29.8179 22.2302 29.348 21.4301C28.8782 20.63 29.146 19.6005 29.946 19.1307C30.7461 18.6609 31.7756 18.9286 32.2454 19.7287ZM41.7936 26.25C44.6931 26.25 47.0436 23.8995 47.0436 21C47.0436 18.1005 44.6931 15.75 41.7936 15.75C38.8941 15.75 36.5436 18.1005 36.5436 21C36.5436 23.8995 38.8941 26.25 41.7936 26.25Z" fill="#25B679"/>
<path fill-rule="evenodd" clip-rule="evenodd" d="M96.175 2.98007V26.1844H91.8796V2.98007H96.175ZM72.6051 19.4457C73.1654 18.0554 73.4455 16.5354 73.4455 14.8857C73.4455 13.2464 73.1654 11.7368 72.6051 10.3569C72.0552 8.97699 71.2719 7.78902 70.2551 6.79299C69.2487 5.78659 68.0348 5.00325 66.6134 4.44299C65.192 3.88272 63.6149 3.60259 61.8822 3.60259H53.1981V26.1844H61.8822C63.6149 26.1844 65.192 25.9043 66.6134 25.344C68.0348 24.7838 69.2487 24.0056 70.2551 23.0096C71.2719 22.0135 72.0552 20.8256 72.6051 19.4457ZM68.1852 11.6953C68.4965 12.6395 68.6521 13.7029 68.6521 14.8857C68.6521 16.0789 68.4965 17.1475 68.1852 18.0917C67.874 19.0358 67.4278 19.8399 66.8468 20.5039C66.2658 21.1576 65.5551 21.6608 64.7147 22.0135C63.8847 22.3559 62.9405 22.5271 61.8822 22.5271H57.8981V7.25988H61.8822C62.9405 7.25988 63.8847 7.43626 64.7147 7.78902C65.5551 8.14178 66.2658 8.64498 66.8468 9.29863C67.4278 9.95227 67.874 10.7512 68.1852 11.6953ZM78.691 10.4658C77.5497 10.8809 76.507 11.5138 75.5628 12.3645L76.3254 13.7341C76.4603 13.9416 76.6263 14.1231 76.8234 14.2788C77.0309 14.424 77.2851 14.4966 77.586 14.4966C77.9284 14.4966 78.2293 14.4292 78.4886 14.2943C78.748 14.1491 79.023 13.9986 79.3135 13.843C79.6144 13.677 79.9619 13.5266 80.3562 13.3917C80.7505 13.2464 81.2433 13.1738 81.8347 13.1738C82.6336 13.1738 83.2457 13.4124 83.6711 13.8897C84.0965 14.3566 84.3092 15.0932 84.3092 16.0996V16.9245C82.4728 16.966 80.9424 17.1475 79.7181 17.4692C78.5042 17.7804 77.5289 18.1799 76.7923 18.6675C76.066 19.1448 75.5524 19.6791 75.2515 20.2705C74.9507 20.8619 74.8002 21.4533 74.8002 22.0447C74.8002 22.7606 74.9144 23.3935 75.1426 23.9434C75.3709 24.4932 75.6925 24.9549 76.1075 25.3285C76.5329 25.6916 77.0361 25.9665 77.6171 26.1533C78.1981 26.34 78.8414 26.4334 79.5469 26.4334C80.1176 26.4334 80.6311 26.3867 81.0877 26.2934C81.5545 26.2 81.9903 26.0651 82.3949 25.8887C82.7996 25.702 83.1887 25.4737 83.5622 25.204C83.9461 24.9342 84.3403 24.6229 84.745 24.2702L85.0873 25.2973C85.2222 25.6605 85.3934 25.8991 85.6009 26.0132C85.8188 26.1274 86.1301 26.1844 86.5347 26.1844H88.4956V16.0996C88.4956 15.1866 88.3556 14.3462 88.0754 13.5784C87.7953 12.8107 87.3907 12.1518 86.8615 11.6019C86.3427 11.0417 85.7047 10.6059 84.9473 10.2947C84.2002 9.9834 83.3495 9.82777 82.3949 9.82777C81.0669 9.82777 79.8322 10.0405 78.691 10.4658ZM81.6231 23.2775C80.0078 23.8654 78.4004 23.5236 78.0329 22.514C77.6654 21.5044 78.677 20.2094 80.2924 19.6214C81.9078 19.0335 83.5152 19.3753 83.8826 20.3849C84.2501 21.3945 83.2385 22.6896 81.6231 23.2775ZM102.522 10.4658C101.38 10.8809 100.338 11.5138 99.3936 12.3645L100.156 13.7341C100.291 13.9416 100.457 14.1231 100.654 14.2788C100.862 14.424 101.116 14.4966 101.417 14.4966C101.759 14.4966 102.06 14.4292 102.319 14.2943C102.579 14.1491 102.854 13.9986 103.144 13.843C103.445 13.677 103.793 13.5266 104.187 13.3917C104.581 13.2464 105.074 13.1738 105.665 13.1738C106.464 13.1738 107.076 13.4124 107.502 13.8897C107.927 14.3566 108.14 15.0932 108.14 16.0996V16.9245C106.304 16.966 104.773 17.1475 103.549 17.4692C102.335 17.7804 101.36 18.1799 100.623 18.6675C99.8968 19.1448 99.3832 19.6791 99.0823 20.2705C98.7814 20.8619 98.631 21.4533 98.631 22.0447C98.631 22.7606 98.7451 23.3935 98.9734 23.9434C99.2016 24.4932 99.5233 24.9549 99.9383 25.3285C100.364 25.6916 100.867 25.9665 101.448 26.1533C102.029 26.34 102.672 26.4334 103.378 26.4334C103.948 26.4334 104.462 26.3867 104.918 26.2934C105.385 26.2 105.821 26.0651 106.226 25.8887C106.63 25.702 107.019 25.4737 107.393 25.204C107.777 24.9342 108.171 24.6229 108.576 24.2702L108.918 25.2973C109.053 25.6605 109.224 25.8991 109.432 26.0132C109.65 26.1274 109.961 26.1844 110.365 26.1844H112.326V16.0996C112.326 15.1866 112.186 14.3462 111.906 13.5784C111.626 12.8107 111.221 12.1518 110.692 11.6019C110.174 11.0417 109.535 10.6059 108.778 10.2947C108.031 9.9834 107.18 9.82777 106.226 9.82777C104.898 9.82777 103.663 10.0405 102.522 10.4658ZM101.883 22.5158C102.251 23.5254 103.858 23.8672 105.473 23.2793C107.089 22.6913 108.1 21.3962 107.733 20.3866C107.365 19.377 105.758 19.0352 104.143 19.6232C102.527 20.2111 101.516 21.5062 101.883 22.5158ZM129.888 2.98007V26.1844H127.243C126.693 26.1844 126.34 25.9354 126.184 25.4374L125.826 24.0367C125.505 24.3895 125.162 24.7111 124.799 25.0016C124.446 25.2921 124.062 25.5463 123.647 25.7642C123.232 25.9717 122.786 26.1325 122.309 26.2467C121.832 26.3608 121.313 26.4179 120.753 26.4179C119.892 26.4179 119.103 26.2363 118.387 25.8732C117.671 25.51 117.049 24.9809 116.52 24.2857C116.001 23.5802 115.596 22.7191 115.306 21.7023C115.015 20.6855 114.87 19.5235 114.87 18.2162C114.87 17.023 115.031 15.9129 115.352 14.8857C115.684 13.8586 116.151 12.9715 116.753 12.2245C117.355 11.4774 118.081 10.8912 118.932 10.4658C119.783 10.0405 120.727 9.82777 121.764 9.82777C122.636 9.82777 123.367 9.95746 123.959 10.2168C124.56 10.4762 125.105 10.829 125.593 11.2751V2.98007H129.888ZM136.231 10.4658C135.09 10.8809 134.047 11.5138 133.103 12.3645L133.866 13.7341C134.001 13.9416 134.167 14.1231 134.364 14.2788C134.571 14.424 134.825 14.4966 135.126 14.4966C135.469 14.4966 135.77 14.4292 136.029 14.2943C136.288 14.1491 136.563 13.9986 136.854 13.843C137.155 13.677 137.502 13.5266 137.897 13.3917C138.291 13.2464 138.784 13.1738 139.375 13.1738C140.174 13.1738 140.786 13.4124 141.211 13.8897C141.637 14.3566 141.85 15.0932 141.85 16.0996V16.9245C140.013 16.966 138.483 17.1475 137.258 17.4692C136.045 17.7804 135.069 18.1799 134.333 18.6675C133.606 19.1448 133.093 19.6791 132.792 20.2705C132.491 20.8619 132.341 21.4533 132.341 22.0447C132.341 22.7606 132.455 23.3935 132.683 23.9434C132.911 24.4932 133.233 24.9549 133.648 25.3285C134.073 25.6916 134.576 25.9665 135.157 26.1533C135.738 26.34 136.382 26.4334 137.087 26.4334C137.658 26.4334 138.172 26.3867 138.628 26.2934C139.095 26.2 139.531 26.0651 139.935 25.8887C140.34 25.702 140.729 25.4737 141.103 25.204C141.486 24.9342 141.881 24.6229 142.285 24.2702L142.628 25.2973C142.763 25.6605 142.934 25.8991 143.141 26.0132C143.359 26.1274 143.67 26.1844 144.075 26.1844H146.036V16.0996C146.036 15.1866 145.896 14.3462 145.616 13.5784C145.336 12.8107 144.931 12.1518 144.402 11.6019C143.883 11.0417 143.245 10.6059 142.488 10.2947C141.741 9.9834 140.89 9.82777 139.935 9.82777C138.607 9.82777 137.373 10.0405 136.231 10.4658ZM135.577 22.5158C135.944 23.5254 137.552 23.8672 139.167 23.2793C140.782 22.6913 141.794 21.3962 141.427 20.3866C141.059 19.377 139.452 19.0352 137.836 19.6232C136.221 20.2111 135.209 21.5062 135.577 22.5158ZM153.373 12.0066C153.695 11.6953 154.027 11.41 154.369 11.1506C154.722 10.8912 155.09 10.6682 155.474 10.4814C155.868 10.2947 156.288 10.1494 156.735 10.0456C157.191 9.94189 157.684 9.89002 158.213 9.89002C159.085 9.89002 159.858 10.0405 160.532 10.3413C161.206 10.6422 161.772 11.0624 162.228 11.6019C162.695 12.1415 163.043 12.7847 163.271 13.5317C163.51 14.2788 163.629 15.0984 163.629 15.9907V26.1844H159.349V15.9907C159.349 15.0984 159.142 14.4085 158.727 13.9208C158.312 13.4228 157.699 13.1738 156.89 13.1738C156.288 13.1738 155.723 13.3035 155.194 13.5629C154.665 13.8223 154.161 14.1854 153.684 14.6523V26.1844H149.389V10.139H152.035C152.574 10.139 152.932 10.388 153.108 10.886L153.373 12.0066ZM121.749 22.3182C123.64 22.3182 125.173 20.4021 125.173 18.0384C125.173 15.6747 123.64 13.7586 121.749 13.7586C119.859 13.7586 118.326 15.6747 118.326 18.0384C118.326 20.4021 119.859 22.3182 121.749 22.3182Z" fill="#25B679"/>
<path fill-rule="evenodd" clip-rule="evenodd" d="M107.33 33.5033C107.413 33.4291 107.498 33.362 107.587 33.3021C107.678 33.2393 107.774 33.1866 107.873 33.1438C107.976 33.0981 108.085 33.0639 108.199 33.041C108.316 33.0154 108.441 33.0025 108.575 33.0025C108.815 33.0025 109.028 33.0439 109.213 33.1266C109.398 33.2094 109.554 33.3249 109.679 33.4733C109.808 33.6217 109.903 33.7986 109.966 34.004C110.032 34.2094 110.065 34.4348 110.065 34.6802V37.4835H108.888V34.6802C108.888 34.4348 108.831 34.2451 108.717 34.111C108.602 33.974 108.434 33.9056 108.211 33.9056C108.046 33.9056 107.89 33.9412 107.745 34.0126C107.599 34.0839 107.461 34.1838 107.33 34.3122V37.4835H106.149V31.1023H107.33V33.5033ZM58.535 35.6303C58.6891 35.248 58.7662 34.83 58.7662 34.3763C58.7662 33.9255 58.6891 33.5104 58.535 33.1309C58.3838 32.7514 58.1684 32.4248 57.8888 32.1508C57.612 31.8741 57.2782 31.6587 56.8873 31.5046C56.4964 31.3505 56.0627 31.2735 55.5863 31.2735H53.1981V37.4835H55.5863C56.0627 37.4835 56.4964 37.4065 56.8873 37.2524C57.2782 37.0983 57.612 36.8843 57.8888 36.6104C58.1684 36.3365 58.3838 36.0098 58.535 35.6303ZM57.3196 33.499C57.4052 33.7586 57.448 34.0511 57.448 34.3763C57.448 34.7045 57.4052 34.9983 57.3196 35.258C57.234 35.5176 57.1113 35.7388 56.9515 35.9214C56.7917 36.1011 56.5963 36.2395 56.3652 36.3365C56.1369 36.4307 55.8773 36.4777 55.5863 36.4777H54.4906V32.2792H55.5863C55.8773 32.2792 56.1369 32.3277 56.3652 32.4248C56.5963 32.5218 56.7917 32.6601 56.9515 32.8399C57.1113 33.0196 57.234 33.2393 57.3196 33.499ZM60.2087 33.1609C59.8948 33.275 59.6081 33.4491 59.3484 33.683L59.5581 34.0596C59.5952 34.1167 59.6409 34.1666 59.6951 34.2094C59.7521 34.2494 59.822 34.2694 59.9048 34.2694C59.9989 34.2694 60.0817 34.2508 60.153 34.2137C60.2243 34.1738 60.3 34.1324 60.3798 34.0896C60.4626 34.0439 60.5582 34.0026 60.6666 33.9655C60.775 33.9255 60.9105 33.9056 61.0732 33.9056C61.2929 33.9056 61.4612 33.9712 61.5782 34.1024C61.6952 34.2308 61.7537 34.4334 61.7537 34.7102V34.937C61.2486 34.9484 60.8278 34.9983 60.4911 35.0868C60.1573 35.1724 59.8891 35.2822 59.6865 35.4163C59.4868 35.5476 59.3456 35.6945 59.2628 35.8572C59.1801 36.0198 59.1387 36.1824 59.1387 36.3451C59.1387 36.5419 59.1701 36.716 59.2329 36.8672C59.2956 37.0184 59.3841 37.1454 59.4982 37.2481C59.6152 37.348 59.7536 37.4236 59.9133 37.4749C60.0731 37.5263 60.25 37.552 60.444 37.552C60.601 37.552 60.7422 37.5391 60.8677 37.5134C60.9961 37.4878 61.116 37.4507 61.2272 37.4022C61.3385 37.3508 61.4455 37.288 61.5482 37.2139C61.6538 37.1397 61.7622 37.0541 61.8735 36.9571L61.9677 37.2395C62.0047 37.3394 62.0518 37.405 62.1089 37.4364C62.1688 37.4678 62.2544 37.4835 62.3657 37.4835H62.9049V34.7102C62.9049 34.4591 62.8664 34.228 62.7894 34.0168C62.7123 33.8057 62.6011 33.6245 62.4556 33.4733C62.3129 33.3192 62.1374 33.1994 61.9291 33.1138C61.7237 33.0282 61.4897 32.9854 61.2272 32.9854C60.862 32.9854 60.5225 33.0439 60.2087 33.1609ZM60.5545 35.6663C60.1232 35.8233 59.8584 36.1836 59.9631 36.4711C60.0677 36.7586 60.5022 36.8644 60.9334 36.7075C61.3647 36.5505 61.6294 36.1902 61.5248 35.9027C61.4202 35.6152 60.9857 35.5094 60.5545 35.6663ZM66.5703 33.9783C66.5389 34.0268 66.5061 34.0625 66.4719 34.0853C66.4405 34.1053 66.3963 34.1153 66.3392 34.1153C66.2822 34.1153 66.2237 34.101 66.1637 34.0725C66.1038 34.044 66.0368 34.014 65.9626 33.9826C65.8884 33.9484 65.8028 33.917 65.7058 33.8885C65.6116 33.8599 65.5018 33.8457 65.3763 33.8457C65.1851 33.8457 65.0367 33.8856 64.9312 33.9655C64.8256 34.0425 64.7728 34.1452 64.7728 34.2736C64.7728 34.3621 64.8028 34.4363 64.8627 34.4962C64.9226 34.5561 65.0011 34.6089 65.0981 34.6545C65.1979 34.6973 65.3106 34.7387 65.4362 34.7787C65.5617 34.8157 65.6901 34.8571 65.8214 34.9028C65.9555 34.9484 66.0853 35.0012 66.2108 35.0611C66.3364 35.121 66.4476 35.1966 66.5446 35.2879C66.6445 35.3764 66.7244 35.4848 66.7843 35.6132C66.8442 35.7388 66.8742 35.8914 66.8742 36.0712C66.8742 36.2851 66.8342 36.4834 66.7544 36.666C66.6773 36.8458 66.5632 37.0013 66.412 37.1325C66.2608 37.2638 66.0724 37.3665 65.847 37.4407C65.6216 37.5149 65.362 37.552 65.0681 37.552C64.9169 37.552 64.7671 37.5377 64.6187 37.5092C64.4704 37.4835 64.3291 37.4464 64.195 37.3979C64.0609 37.3465 63.9354 37.288 63.8184 37.2224C63.7014 37.1568 63.6001 37.0855 63.5145 37.0084L63.7884 36.5676C63.8198 36.5163 63.8583 36.4763 63.904 36.4478C63.9525 36.4192 64.0139 36.405 64.088 36.405C64.1594 36.405 64.225 36.4235 64.2849 36.4606C64.3448 36.4949 64.4119 36.5334 64.4861 36.5762C64.5602 36.6161 64.6473 36.6546 64.7471 36.6917C64.8498 36.726 64.9768 36.7431 65.128 36.7431C65.2422 36.7431 65.3406 36.7302 65.4233 36.7046C65.5061 36.6789 65.5731 36.6446 65.6245 36.6018C65.6758 36.5562 65.7129 36.5063 65.7358 36.4521C65.7614 36.395 65.7743 36.3365 65.7743 36.2766C65.7743 36.1796 65.7429 36.1011 65.6801 36.0412C65.6202 35.9784 65.5403 35.9242 65.4405 35.8786C65.3434 35.8329 65.2307 35.7915 65.1023 35.7544C64.974 35.7174 64.8427 35.676 64.7086 35.6303C64.5774 35.5847 64.4475 35.5305 64.3191 35.4677C64.1936 35.4049 64.0809 35.3265 63.981 35.2323C63.884 35.1353 63.8041 35.0169 63.7414 34.8771C63.6815 34.7373 63.6515 34.5675 63.6515 34.3678C63.6515 34.1852 63.6872 34.0126 63.7585 33.8499C63.8298 33.6844 63.9368 33.5389 64.0795 33.4134C64.2221 33.2879 64.399 33.188 64.6102 33.1138C64.8242 33.0396 65.071 33.0025 65.3506 33.0025C65.6644 33.0025 65.9498 33.0539 66.2065 33.1566C66.4633 33.2593 66.6745 33.3934 66.84 33.5589L66.5703 33.9783ZM68.6065 37.4664C68.7606 37.5234 68.9375 37.552 69.1372 37.552C69.3569 37.552 69.5695 37.5192 69.7749 37.4535C69.9803 37.3879 70.1644 37.2909 70.327 37.1625L69.9718 36.5976C69.9489 36.5605 69.9261 36.5348 69.9033 36.5205C69.8805 36.5034 69.8519 36.4949 69.8177 36.4949C69.792 36.4949 69.7663 36.502 69.7407 36.5163C69.7178 36.5277 69.6922 36.5419 69.6636 36.5591C69.6351 36.5733 69.6009 36.5876 69.5609 36.6018C69.521 36.6133 69.4725 36.619 69.4154 36.619C69.307 36.619 69.2228 36.5833 69.1629 36.512C69.1058 36.4406 69.0773 36.3436 69.0773 36.2209V33.9184H70.2157V33.0967H69.0773V31.7528H68.461C68.3183 31.7528 68.2313 31.817 68.1999 31.9454L67.9603 33.0881L67.2541 33.2165V33.6787C67.2541 33.7586 67.2755 33.8185 67.3183 33.8585C67.3639 33.8984 67.4182 33.9184 67.4809 33.9184H67.8961V36.298C67.8961 36.492 67.9232 36.666 67.9774 36.8201C68.0316 36.9742 68.1115 37.1054 68.217 37.2139C68.3226 37.3223 68.4524 37.4065 68.6065 37.4664ZM74.7218 33.071V37.4835H73.9942C73.843 37.4835 73.746 37.415 73.7032 37.2781L73.6261 36.9699C73.5377 37.0555 73.4464 37.134 73.3522 37.2053C73.2581 37.2766 73.1568 37.338 73.0484 37.3893C72.9428 37.4407 72.8272 37.4806 72.7017 37.5092C72.579 37.5377 72.4449 37.552 72.2994 37.552C72.0597 37.552 71.8457 37.5106 71.6574 37.4279C71.472 37.3451 71.3165 37.2296 71.1909 37.0812C71.0654 36.9328 70.9698 36.7559 70.9042 36.5505C70.8385 36.3451 70.8057 36.1197 70.8057 35.8743V33.071H71.987V35.8743C71.987 36.1197 72.0426 36.3108 72.1539 36.4478C72.268 36.5819 72.4363 36.6489 72.6589 36.6489C72.8244 36.6489 72.9799 36.6133 73.1254 36.5419C73.2709 36.4677 73.4093 36.3679 73.5405 36.2423V33.071H74.7218ZM77.2888 33.2037C77.1062 33.3492 76.945 33.5475 76.8052 33.7986L76.741 33.3578C76.7211 33.2522 76.6882 33.178 76.6426 33.1352C76.5969 33.0924 76.5142 33.071 76.3944 33.071H75.6968V37.4835H76.878V34.7829C76.9236 34.6774 76.9721 34.5832 77.0235 34.5005C77.0777 34.4177 77.1376 34.3478 77.2032 34.2908C77.2689 34.2337 77.3431 34.1895 77.4258 34.1581C77.5114 34.1267 77.6084 34.111 77.7168 34.111C77.791 34.111 77.8709 34.1181 77.9565 34.1324C78.0421 34.1438 78.1077 34.1495 78.1534 34.1495C78.2047 34.1495 78.2447 34.1395 78.2732 34.1196C78.3046 34.0967 78.3274 34.0568 78.3417 33.9997L78.4187 33.1266C78.2932 33.0325 78.1305 32.9854 77.9308 32.9854C77.6854 32.9854 77.4715 33.0582 77.2888 33.2037ZM82.9934 37.4835H81.8593C81.7737 37.4835 81.7038 37.4621 81.6496 37.4193C81.5982 37.3765 81.5568 37.3266 81.5255 37.2695L80.6567 35.8186C80.631 35.9157 80.5939 36.0012 80.5454 36.0754L79.8007 37.2695C79.7665 37.3237 79.7237 37.3736 79.6723 37.4193C79.6238 37.4621 79.561 37.4835 79.484 37.4835H78.4312L79.9291 35.2066L78.4911 33.071H79.6252C79.7108 33.071 79.7736 33.0824 79.8135 33.1052C79.8535 33.1281 79.8891 33.1652 79.9205 33.2165L80.785 34.616C80.7993 34.5675 80.8179 34.519 80.8407 34.4705C80.8635 34.4191 80.8906 34.3692 80.922 34.3207L81.5854 33.2379C81.6539 33.1266 81.7423 33.071 81.8507 33.071H82.9335L81.4955 35.1553L82.9934 37.4835ZM86.1715 33.1609C85.9005 33.0553 85.5995 33.0025 85.2685 33.0025C84.9347 33.0025 84.6308 33.0553 84.3569 33.1609C84.0858 33.2665 83.8533 33.4177 83.6593 33.6145C83.4653 33.8086 83.314 34.0454 83.2056 34.325C83.1 34.6046 83.0473 34.9199 83.0473 35.2708C83.0473 35.6218 83.1 35.9385 83.2056 36.2209C83.314 36.5006 83.4653 36.7388 83.6593 36.9357C83.8533 37.1325 84.0858 37.2838 84.3569 37.3893C84.6308 37.4949 84.9347 37.5477 85.2685 37.5477C85.5995 37.5477 85.9005 37.4949 86.1715 37.3893C86.4426 37.2838 86.6751 37.1325 86.8691 36.9357C87.0632 36.7388 87.213 36.5006 87.3185 36.2209C87.4241 35.9385 87.4769 35.6218 87.4769 35.2708C87.4769 34.9199 87.4241 34.6046 87.3185 34.325C87.213 34.0454 87.0632 33.8086 86.8691 33.6145C86.6751 33.4177 86.4426 33.2665 86.1715 33.1609ZM86.0175 36.3151C85.8548 36.5462 85.6052 36.6618 85.2685 36.6618C84.9233 36.6618 84.6693 36.5462 84.5067 36.3151C84.344 36.0811 84.2627 35.7345 84.2627 35.2751C84.2627 34.8186 84.344 34.4748 84.5067 34.2437C84.6693 34.0097 84.9233 33.8927 85.2685 33.8927C85.6052 33.8927 85.8548 34.0097 86.0175 34.2437C86.1801 34.4748 86.2614 34.8186 86.2614 35.2751C86.2614 35.7345 86.1801 36.0811 86.0175 36.3151ZM89.3142 33.5846C89.4026 33.499 89.4939 33.4205 89.5881 33.3492C89.6851 33.2779 89.7864 33.2165 89.892 33.1652C90.0004 33.1138 90.1159 33.0739 90.2386 33.0453C90.3642 33.0168 90.4997 33.0025 90.6452 33.0025C90.8849 33.0025 91.0974 33.0439 91.2829 33.1266C91.4684 33.2094 91.6239 33.3249 91.7494 33.4733C91.8778 33.6217 91.9734 33.7986 92.0361 34.004C92.1018 34.2094 92.1346 34.4348 92.1346 34.6802V37.4835H90.9576V34.6802C90.9576 34.4348 90.9006 34.2451 90.7864 34.111C90.6723 33.974 90.504 33.9056 90.2814 33.9056C90.1159 33.9056 89.9604 33.9412 89.8149 34.0126C89.6694 34.0839 89.531 34.1838 89.3998 34.3122V37.4835H88.2185V33.071H88.9461C89.0945 33.071 89.1929 33.1395 89.2414 33.2764L89.3142 33.5846ZM97.0083 33.6488V33.2165H95.7158C95.4276 33.0682 95.0952 32.994 94.7186 32.994C94.4646 32.994 94.2293 33.0268 94.0124 33.0924C93.7956 33.158 93.6073 33.2536 93.4475 33.3792C93.2877 33.5018 93.1622 33.6516 93.0709 33.8285C92.9824 34.0054 92.9382 34.2037 92.9382 34.4234C92.9382 34.6916 93.0038 34.927 93.135 35.1296C93.2663 35.3293 93.4446 35.4891 93.67 35.6089C93.4703 35.7059 93.3219 35.8272 93.2249 35.9727C93.1308 36.1182 93.0837 36.2566 93.0837 36.3879C93.0837 36.5505 93.1165 36.6832 93.1821 36.7859C93.2506 36.8857 93.3405 36.9671 93.4518 37.0298C93.2406 37.1126 93.0751 37.2224 92.9553 37.3594C92.8355 37.4963 92.7755 37.6632 92.7755 37.8601C92.7755 38.0113 92.8155 38.1568 92.8954 38.2967C92.9753 38.4365 93.0965 38.5591 93.2592 38.6647C93.4246 38.7731 93.6315 38.8587 93.8797 38.9215C94.1308 38.9871 94.4261 39.0199 94.7657 39.0199C95.108 39.0199 95.4133 38.9757 95.6815 38.8873C95.9497 38.7988 96.1751 38.6818 96.3577 38.5363C96.5432 38.3908 96.6844 38.2253 96.7814 38.0399C96.8785 37.8544 96.927 37.6632 96.927 37.4664C96.927 37.2552 96.8856 37.0826 96.8028 36.9485C96.723 36.8144 96.616 36.7074 96.4819 36.6275C96.3506 36.5448 96.1994 36.4863 96.0282 36.4521C95.8599 36.415 95.6872 36.3893 95.5103 36.375C95.3363 36.3608 95.1637 36.3522 94.9925 36.3493C94.8241 36.3436 94.6729 36.3336 94.5388 36.3194C94.4076 36.3023 94.3006 36.2752 94.2178 36.2381C94.1379 36.201 94.098 36.1411 94.098 36.0583C94.098 35.9699 94.1579 35.8885 94.2778 35.8144C94.4147 35.84 94.5617 35.8529 94.7186 35.8529C94.9668 35.8529 95.1979 35.8201 95.4119 35.7544C95.6259 35.686 95.8114 35.5904 95.9683 35.4677C96.1252 35.3422 96.2479 35.1924 96.3363 35.0183C96.4277 34.8414 96.4733 34.6431 96.4733 34.4234C96.4733 34.2636 96.4491 34.1139 96.4005 33.974L96.7601 33.9013C96.8485 33.8813 96.9113 33.8514 96.9484 33.8114C96.9883 33.7715 97.0083 33.7173 97.0083 33.6488ZM95.2536 34.9284C95.1394 35.0511 94.9611 35.1125 94.7186 35.1125C94.4789 35.1125 94.3006 35.0511 94.1836 34.9284C94.0695 34.8029 94.0124 34.6445 94.0124 34.4534C94.0124 34.2508 94.0695 34.0925 94.1836 33.9783C94.2977 33.8613 94.4761 33.8029 94.7186 33.8029C94.9611 33.8029 95.1394 33.8613 95.2536 33.9783C95.3705 34.0925 95.429 34.2508 95.429 34.4534C95.429 34.6474 95.3705 34.8058 95.2536 34.9284ZM95.7629 37.4749C95.8114 37.5234 95.8356 37.5862 95.8356 37.6632C95.8356 37.7403 95.8171 37.8116 95.78 37.8772C95.7457 37.9429 95.6872 37.9985 95.6045 38.0441C95.5218 38.0926 95.4133 38.1297 95.2792 38.1554C95.1451 38.1811 94.9811 38.1939 94.7871 38.1939C94.5987 38.1939 94.4418 38.1811 94.3163 38.1554C94.1907 38.1326 94.0894 38.0998 94.0124 38.057C93.9354 38.0142 93.8797 37.9628 93.8455 37.9029C93.8141 37.843 93.7984 37.7774 93.7984 37.706C93.7984 37.6033 93.8298 37.512 93.8926 37.4321C93.9582 37.3494 94.0409 37.2781 94.1408 37.2181C94.2692 37.2324 94.4004 37.2424 94.5345 37.2481C94.6686 37.2538 94.7985 37.2609 94.924 37.2695C95.0495 37.2752 95.168 37.2852 95.2792 37.2995C95.3905 37.3109 95.4861 37.3308 95.566 37.3594C95.6487 37.3879 95.7143 37.4264 95.7629 37.4749ZM97.524 33.683C97.7836 33.4491 98.0704 33.275 98.3842 33.1609C98.6981 33.0439 99.0376 32.9854 99.4028 32.9854C99.6653 32.9854 99.8993 33.0282 100.105 33.1138C100.313 33.1994 100.488 33.3192 100.631 33.4733C100.777 33.6245 100.888 33.8057 100.965 34.0168C101.042 34.228 101.081 34.4591 101.081 34.7102V37.4835H100.541C100.43 37.4835 100.344 37.4678 100.284 37.4364C100.227 37.405 100.18 37.3394 100.143 37.2395L100.049 36.9571C99.9378 37.0541 99.8294 37.1397 99.7238 37.2139C99.6211 37.288 99.5141 37.3508 99.4028 37.4022C99.2916 37.4507 99.1717 37.4878 99.0433 37.5134C98.9178 37.5391 98.7766 37.552 98.6196 37.552C98.4256 37.552 98.2487 37.5263 98.0889 37.4749C97.9292 37.4236 97.7908 37.348 97.6738 37.2481C97.5597 37.1454 97.4712 37.0184 97.4084 36.8672C97.3457 36.716 97.3143 36.5419 97.3143 36.3451C97.3143 36.1824 97.3557 36.0198 97.4384 35.8572C97.5211 35.6945 97.6624 35.5476 97.8621 35.4163C98.0647 35.2822 98.3329 35.1724 98.6667 35.0868C99.0034 34.9983 99.4242 34.9484 99.9292 34.937V34.7102C99.9292 34.4334 99.8708 34.2308 99.7538 34.1024C99.6368 33.9712 99.4685 33.9056 99.2488 33.9056C99.0861 33.9056 98.9506 33.9255 98.8422 33.9655C98.7338 34.0026 98.6382 34.0439 98.5554 34.0896C98.4755 34.1324 98.3999 34.1738 98.3286 34.2137C98.2573 34.2508 98.1745 34.2694 98.0804 34.2694C97.9976 34.2694 97.9277 34.2494 97.8707 34.2094C97.8164 34.1666 97.7708 34.1167 97.7337 34.0596L97.524 33.683ZM98.0923 36.4711C97.9877 36.1836 98.2524 35.8233 98.6837 35.6663C99.115 35.5094 99.5494 35.6152 99.654 35.9027C99.7587 36.1902 99.4939 36.5505 99.0626 36.7075C98.6314 36.8644 98.1969 36.7586 98.0923 36.4711ZM105.101 34.1624C105.135 34.1367 105.17 34.101 105.204 34.0554L105.512 33.6359C105.309 33.4305 105.081 33.2736 104.827 33.1652C104.573 33.0567 104.278 33.0025 103.941 33.0025C103.588 33.0025 103.275 33.061 103.004 33.178C102.736 33.2921 102.51 33.4505 102.328 33.6531C102.145 33.8556 102.007 34.0953 101.913 34.3721C101.819 34.6488 101.771 34.9484 101.771 35.2708C101.771 35.6332 101.824 35.9556 101.93 36.2381C102.038 36.5205 102.184 36.7588 102.366 36.9528C102.549 37.1468 102.762 37.2952 103.004 37.3979C103.247 37.4978 103.503 37.5477 103.774 37.5477C103.928 37.5477 104.084 37.5363 104.241 37.5134C104.398 37.4935 104.552 37.4564 104.703 37.4022C104.857 37.3451 105.006 37.2695 105.148 37.1753C105.291 37.0783 105.425 36.9571 105.551 36.8116L105.212 36.3836C105.161 36.3151 105.09 36.2809 104.998 36.2809C104.95 36.2809 104.906 36.2908 104.866 36.3108C104.829 36.3279 104.79 36.3508 104.75 36.3793C104.713 36.4078 104.673 36.4392 104.63 36.4735C104.588 36.5077 104.536 36.5391 104.476 36.5676C104.419 36.5961 104.351 36.6204 104.271 36.6404C104.194 36.6575 104.101 36.666 103.993 36.666C103.679 36.666 103.431 36.5462 103.248 36.3065C103.068 36.0669 102.978 35.7216 102.978 35.2708C102.978 35.0568 102.998 34.8642 103.038 34.6931C103.081 34.5219 103.145 34.3763 103.231 34.2565C103.316 34.1367 103.423 34.0454 103.552 33.9826C103.683 33.917 103.837 33.8842 104.014 33.8842C104.154 33.8842 104.271 33.9013 104.365 33.9355C104.459 33.9669 104.54 34.0026 104.609 34.0425C104.677 34.0796 104.737 34.1153 104.789 34.1495C104.843 34.1809 104.899 34.1966 104.956 34.1966C105.018 34.1966 105.067 34.1852 105.101 34.1624ZM111.767 33.1609C111.453 33.275 111.166 33.4491 110.907 33.683L111.116 34.0596C111.154 34.1167 111.199 34.1666 111.253 34.2094C111.31 34.2494 111.38 34.2694 111.463 34.2694C111.557 34.2694 111.64 34.2508 111.711 34.2137C111.783 34.1738 111.858 34.1324 111.938 34.0896C112.021 34.0439 112.117 34.0026 112.225 33.9655C112.333 33.9255 112.469 33.9056 112.632 33.9056C112.851 33.9056 113.02 33.9712 113.137 34.1024C113.254 34.2308 113.312 34.4334 113.312 34.7102V34.937C112.807 34.9484 112.386 34.9983 112.049 35.0868C111.716 35.1724 111.447 35.2822 111.245 35.4163C111.045 35.5476 110.904 35.6945 110.821 35.8572C110.738 36.0198 110.697 36.1824 110.697 36.3451C110.697 36.5419 110.728 36.716 110.791 36.8672C110.854 37.0184 110.942 37.1454 111.057 37.2481C111.174 37.348 111.312 37.4236 111.472 37.4749C111.631 37.5263 111.808 37.552 112.002 37.552C112.159 37.552 112.301 37.5391 112.426 37.5134C112.554 37.4878 112.674 37.4507 112.786 37.4022C112.897 37.3508 113.004 37.288 113.107 37.2139C113.212 37.1397 113.321 37.0541 113.432 36.9571L113.526 37.2395C113.563 37.3394 113.61 37.405 113.667 37.4364C113.727 37.4678 113.813 37.4835 113.924 37.4835H114.463V34.7102C114.463 34.4591 114.425 34.228 114.348 34.0168C114.271 33.8057 114.159 33.6245 114.014 33.4733C113.871 33.3192 113.696 33.1994 113.487 33.1138C113.282 33.0282 113.048 32.9854 112.786 32.9854C112.42 32.9854 112.081 33.0439 111.767 33.1609ZM112.068 35.7052C111.637 35.8622 111.372 36.2225 111.476 36.51C111.581 36.7975 112.016 36.9033 112.447 36.7464C112.878 36.5894 113.143 36.2291 113.038 35.9416C112.934 35.6541 112.499 35.5483 112.068 35.7052Z" fill="#25B679"/>
</svg>
