<svg width="47" height="42" viewBox="0 0 47 42" fill="none" xmlns="http://www.w3.org/2000/svg">
<path id="Union" fill-rule="evenodd" clip-rule="evenodd" d="M0.178889 3.8912C0 4.55882 0 5.37255 0 7V35C0 36.6274 0 37.4412 0.178889 38.1088C0.664342 39.9205 2.07947 41.3357 3.8912 41.8211C4.55883 42 5.37255 42 7.00001 42H21C30.4062 42 38.3679 35.8158 41.0413 27.2916C37.7147 27.1206 35.07 24.3691 35.07 21C35.07 17.6309 37.7147 14.8794 41.0413 14.7084C38.3679 6.18415 30.4062 0 21 0H7C5.37255 0 4.55883 0 3.8912 0.178889C2.07947 0.664342 0.664342 2.07947 0.178889 3.8912ZM18.585 28.875C22.9342 28.875 26.46 25.3492 26.46 21C26.46 16.6508 22.9342 13.125 18.585 13.125C14.2358 13.125 10.71 16.6508 10.71 21C10.71 25.3492 14.2358 28.875 18.585 28.875ZM13.3271 11.9899C14.1272 11.5201 14.3949 10.4906 13.9251 9.69054C13.4552 8.89045 12.4258 8.62272 11.6257 9.09254C10.8256 9.56237 10.5579 10.5918 11.0277 11.3919C11.4975 12.192 12.527 12.4598 13.3271 11.9899ZM13.3035 32.582C14.1036 32.1122 14.3713 31.0827 13.9015 30.2826C13.4317 29.4826 12.4022 29.2148 11.6021 29.6846C10.802 30.1545 10.5343 31.1839 11.0041 31.984C11.4739 32.7841 12.5034 33.0519 13.3035 32.582ZM31.8744 19.7287C32.3442 20.5288 32.0765 21.5583 31.2764 22.0281C30.4763 22.4979 29.4468 22.2302 28.977 21.4301C28.5071 20.63 28.7749 19.6005 29.575 19.1307C30.3751 18.6609 31.4045 18.9286 31.8744 19.7287ZM41.4225 26.25C44.322 26.25 46.6725 23.8995 46.6725 21C46.6725 18.1005 44.322 15.75 41.4225 15.75C38.523 15.75 36.1725 18.1005 36.1725 21C36.1725 23.8995 38.523 26.25 41.4225 26.25Z" fill="#25B679"/>
</svg>
